<svg width="186" height="188" viewBox="0 0 186 188" fill="none" xmlns="http://www.w3.org/2000/svg">
  <g clip-path="url(#clip0_1189_683)">
    <path
      d="M35.4539 136.093L22.3423 122.982C5.65152 106.291 5.65152 79.2259 22.3423 62.5351L42.5578 42.3196L62.7733 22.104C79.4641 5.41324 106.529 5.41324 123.22 22.104L143.435 42.3196L163.651 62.5351C180.342 79.2259 180.342 106.291 163.651 122.982L143.435 143.197L118.218 168.415C104.288 182.344 81.7049 182.344 67.7818 168.415C53.8526 154.486 53.8526 131.902 67.7818 117.979L73.5109 112.25"
      stroke="#111111" stroke-width="18.1685" stroke-miterlimit="10" />
    <path d="M98.6523 65.3302L115.725 48.2578" stroke="#111111" stroke-width="18.1685" stroke-miterlimit="10" />
    <path d="M120.43 87.1114L137.502 70.0391" stroke="#111111" stroke-width="18.1685" stroke-miterlimit="10" />
    <path
      d="M134.425 95.572L129.126 82.4483C128.515 80.9343 127.606 79.5595 126.455 78.4088L107.348 59.3016C106.198 58.1509 104.823 57.2365 103.309 56.6308L90.1851 51.3317C87.9503 50.4293 85.4007 50.9501 83.6928 52.6519L71.0294 65.3154C69.9211 66.4237 69.2913 67.9195 69.2731 69.4881L69.261 70.6085C69.0732 86.4878 63.5258 101.834 53.521 114.164C51.583 116.551 51.7647 120.015 53.9389 122.189L58.7535 127.004L63.5682 131.818C65.7423 133.992 69.2065 134.174 71.5926 132.236C83.923 122.231 99.2754 116.684 115.149 116.496L116.269 116.484C117.838 116.466 119.333 115.836 120.442 114.728L133.105 102.064C134.807 100.362 135.328 97.8068 134.425 95.572ZM99.881 93.9732L106.179 100.272L76.1105 108.835L85.9881 98.9574C87.5749 97.3707 87.5749 94.7908 85.9881 93.2041L79.6897 86.9056L109.759 78.3422L99.881 88.2198C98.2943 89.8066 98.2943 92.3865 99.881 93.9732Z"
      fill="#111111" />
  </g>
  <defs>
    <clipPath id="clip0_1189_683">
      <rect width="184.513" height="187.445" fill="#111111" transform="translate(0.742188 0.507812)" />
    </clipPath>
  </defs>
</svg>
